<svg width="469.5" height="113" xml:space="preserve" xmlns="http://www.w3.org/2000/svg"><path fill="#FFF" d="M15.39 94.994c1.73.471 3.31 1.975 3.31 4.491 0 1.906-.821 3.01-1.428 3.623-1.103 1.151-2.921 1.691-5.647 1.691-1.472 0-2.576-.116-3.29-.212V86.88c.931-.212 2.401-.376 3.874-.376 5.041 0 5.907 2.682 5.907 4.492 0 1.717-.995 3.222-2.726 3.927zm-3.031-.847c1.991 0 3.245-1.2 3.245-2.87 0-2.163-1.601-2.704-3.158-2.704-.822 0-1.32.07-1.623.142v5.433h1.536zm-1.536 8.466c.367.07.865.095 1.514.095 2.013 0 3.744-.917 3.744-3.294 0-2.374-1.883-3.244-3.808-3.244h-1.45zM23.757 86.646h8.655v2.281h-6.146v5.196h5.8v2.257h-5.8v5.974h6.514v2.282h-9.023zM39.318 86.646h2.509v17.99h-2.509zM53.913 98.662c0 4.752-2.077 6.232-4.978 6.232-.756 0-1.645-.142-2.164-.354l.303-2.257c.411.164.974.282 1.645.282 1.666 0 2.682-.8 2.682-3.998V86.622h2.511v12.04z" style="fill:#000;fill-opacity:1;stroke:none;stroke-opacity:1"/><path fill="#FFF" style="fill:#000;fill-opacity:1;stroke:none;stroke-opacity:1" d="M56.764 86.646h2.509v17.99h-2.509z" transform="translate(2)"/><path fill="#FFF" d="M77.972 104.636H75.44l-4.349-8.419c-.996-1.952-1.992-4.069-2.75-6.091l-.086.023c.13 2.28.174 4.609.174 7.76v6.727h-2.316v-17.99h2.727l4.327 8.325a53.096 53.096 0 0 1 2.683 5.949l.065-.023c-.196-2.446-.261-4.75-.261-7.62v-6.631h2.316v17.99zM96.369 103.906c-.931.401-2.749.918-4.717.918-7.162 0-8.072-6.186-8.072-9.055 0-5.831 3.528-9.313 8.483-9.313 1.623 0 3.029.307 3.851.755l-.562 2.232c-.78-.377-1.774-.683-3.289-.683-3.397 0-5.842 2.328-5.842 6.892 0 4.539 2.271 6.938 5.518 6.938 1.082 0 1.839-.165 2.208-.377v-5.079H91.09v-2.187h5.28v8.959zM108.054 86.646h2.51v17.99h-2.51zM129.332 104.636h-2.531l-4.35-8.419c-.995-1.952-1.992-4.069-2.749-6.091l-.086.023c.13 2.28.173 4.609.173 7.76v6.727h-2.315v-17.99h2.726l4.328 8.325a53.109 53.109 0 0 1 2.684 5.949l.064-.023c-.195-2.446-.259-4.75-.259-7.62v-6.631h2.315zM143.574 89.443a5.745 5.745 0 0 0-2.942-.8c-1.969 0-2.792 1.246-2.792 2.398 0 1.53.93 2.282 3.03 3.27 2.662 1.271 3.938 2.847 3.938 5.314 0 3.013-2.056 5.269-5.777 5.269-1.559 0-3.203-.494-4.004-1.082l.563-2.28c.888.587 2.229 1.058 3.592 1.058 1.969 0 3.073-1.105 3.073-2.729 0-1.527-.844-2.469-2.813-3.362-2.467-1.083-4.133-2.704-4.133-5.151 0-2.845 2.1-4.984 5.389-4.984 1.579 0 2.77.423 3.484.823zM154.173 104.636h-2.51V88.974h-4.457v-2.328h11.446v2.328h-4.479zM165.276 86.646h2.509v17.99h-2.509zM179.993 104.636h-2.511V88.974h-4.456v-2.328h11.446v2.328h-4.479zM202.807 97.299c0 5.339-2.446 7.596-5.973 7.596-3.397 0-5.691-2.163-5.691-7.525V86.646h2.51v10.889c0 3.599 1.364 5.126 3.267 5.126 2.077 0 3.377-1.553 3.377-5.126V86.646h2.51zM214.675 104.636h-2.511V88.974h-4.457v-2.328h11.447v2.328h-4.479zM225.847 86.646h8.663v2.281h-6.154v5.196h5.807v2.257h-5.807v5.974h6.525v2.282h-9.034zM259.324 95.465c0 6.255-3.094 9.43-7.119 9.43-4.219 0-6.924-3.716-6.924-9.147 0-5.668 2.898-9.384 7.141-9.384 4.392-.001 6.902 3.926 6.902 9.101m-11.402.211c0 3.645 1.516 6.984 4.369 6.984 2.9 0 4.395-3.269 4.395-7.103 0-3.433-1.387-6.961-4.35-6.961-3.051.001-4.414 3.551-4.414 7.08M273.621 86.646v2.281h-6.101v5.55h5.668v2.256h-5.668v7.903h-2.51v-17.99zM292.637 104.636h-2.51V88.974h-4.459v-2.328h11.447v2.328h-4.478zM303.809 86.646h8.656v2.281h-6.147v5.196h5.799v2.257h-5.799v5.974h6.514v2.282h-9.023zM330.57 104.142c-.693.377-2.1.753-3.896.753-4.607 0-7.703-3.316-7.703-9.055 0-6.113 3.549-9.454 8.137-9.454 1.902 0 3.072.448 3.527.707l-.541 2.233c-.691-.353-1.666-.659-2.9-.659-3.201 0-5.582 2.352-5.582 7.032 0 4.421 2.121 6.892 5.541 6.892 1.123 0 2.27-.26 2.984-.637zM346.355 96.451h-6.75v8.185h-2.511V86.622h2.511v7.431h6.75v-7.431h2.512v18.014h-2.512zM368.771 104.636h-2.533l-4.35-8.419c-.994-1.952-1.99-4.069-2.748-6.091l-.086.023c.131 2.28.174 4.609.174 7.76v6.727h-2.316v-17.99h2.729l4.328 8.325a53.266 53.266 0 0 1 2.682 5.949l.064-.023c-.195-2.446-.26-4.75-.26-7.62v-6.631h2.316zM388.422 95.465c0 6.255-3.094 9.43-7.119 9.43-4.219 0-6.924-3.716-6.924-9.147 0-5.668 2.9-9.384 7.141-9.384 4.392-.001 6.902 3.926 6.902 9.101m-11.402.211c0 3.645 1.512 6.984 4.369 6.984 2.9 0 4.395-3.269 4.395-7.103 0-3.433-1.385-6.961-4.352-6.961-3.049.001-4.412 3.551-4.412 7.08M394.176 86.646h2.512v15.685h6.382v2.305h-8.894zM422.545 95.465c0 6.255-3.094 9.43-7.119 9.43-4.219 0-6.924-3.716-6.924-9.147 0-5.668 2.9-9.384 7.141-9.384 4.392-.001 6.902 3.926 6.902 9.101m-11.402.211c0 3.645 1.514 6.984 4.369 6.984 2.9 0 4.395-3.269 4.395-7.103 0-3.433-1.385-6.961-4.352-6.961-3.049.001-4.412 3.551-4.412 7.08M439.502 103.451c-.886.381-2.614.872-4.485.872-6.81 0-7.675-5.881-7.675-8.607 0-5.544 3.354-8.854 8.065-8.854 1.543 0 2.88.291 3.662.717l-.535 2.123c-.741-.358-1.688-.649-3.127-.649-3.23 0-5.555 2.214-5.555 6.552 0 4.315 2.159 6.596 5.246 6.596 1.028 0 1.748-.157 2.099-.358v-4.829h-2.716v-2.078h5.021zM456.569 87.04l-4.875 9.883v7.222h-2.387V96.99l-4.628-9.949h2.693l1.852 4.472c.515 1.253.968 2.326 1.379 3.533h.041c.392-1.141.864-2.28 1.38-3.556l1.87-4.449h2.675z" style="fill:#000;fill-opacity:1;stroke:none;stroke-opacity:1"/><g style="fill:#000;fill-opacity:1;stroke:none;stroke-opacity:1" fill="#FFF"><path d="M187.596 53.028c-.53 0-1.666-.076-2.196 0-.227-.152-.455-1.742-.227-2.196.909-2.121 4.62-4.771 5.68-5.377.379-.227.379-.681.454-1.136 0-.833-.302-1.136-1.211-2.878-.455-.833-.227-1.666-.606-1.741-.682-.076-1.287.681-1.969.075-.606-.605-.228-2.044-.228-2.499 0-.53-.53-2.196.303-3.71.303-.379 2.272-2.575 3.029-3.257.606-.53 1.136-.984 1.439-1.438.227-.303.303-.606.303-.909-.076-1.893.984-2.651.984-3.256.075-.833.757-2.424.53-2.878-.303-.833-.833-3.03-1.818-2.954-.076 0-.227.075-.378.075-.758.379-1.515.379-3.408.227-3.711-.227-8.028 4.165-11.89 5.68-.757.303-2.196.151-2.802.303-.833.227-1.742.454-2.12 1.287-.227.606-.378 1.289-.985 1.515-.682.303-1.288.53-1.288.833 0 .53 0 2.575.682 2.802.606.227.909 0 1.288.833.076.682.833 1.667 1.515 1.667.682.076 1.666.681 2.348.909.757.303 2.348.53 1.969 1.893-.227 1.06-.076 3.256-.53 3.938-.606.984-1.439 2.044-2.651 2.121-.454.076-1.363-.151-1.817-.076-1.515.228-2.802 1.288-2.802 2.878 0 .984 1.742 3.029 1.742 3.029.227.606.454.985.908 1.439.53.454.682 1.514.682 1.59 0 .606-.378 1.212-.454 2.045 0 .381-.228 1.218-.454 1.521-.378.914-1.061 1.37-1.515 1.673-.454.229-1.742 1.44-2.196 1.592-1.742.605-3.787 2.802-3.862 3.71-.152 1.213.227 2.575.681 3.938.228.759.909 1.439 1.515 2.121.605.682.227 1.893 1.06 2.12 1.06.379 2.045.454 2.423.683.53.378 1.742 0 1.742 0 .984-.456 2.574-2.878 4.316-3.863 2.044-1.211 6.438-2.878 8.861-4.469 2.575-1.666 5.074-3.407 5.453-6.516.076-.532-.303-1.674-.606-2.13-.228-.381-1.44-1.214-1.894-1.214zM231.142 17.434c-.303-.303-.53-1.742-.833-1.969-.53-.455-3.408-.379-4.847-.379-.833 0-1.514-.984-2.5-.984-.605 0-3.408.984-6.134 1.893l-2.196.757c-1.061.379-1.893.682-2.5.833-.909.379-2.424 0-3.56.379-1.135.378-1.968.833-2.801 1.211-.605.228-1.136.455-1.742.682-.53.227-2.347.682-2.65.833-.53.227-1.59.227-2.044.227-1.136 0-1.136-1.287-2.121-1.287-.909 0-1.893 1.893-1.742 3.408.151 1.21-.606 2.65-.682 3.407 0 .606-.303 1.062-.303 1.969.076 1.136.833 2.045.833 2.651-.228 2.12.454 5.301.605 6.059.151.984-1.288 2.271-1.288 3.862 0 .454.227 1.59.682 2.499.151.379 1.287.833 1.211 2.196-.076.53.303 1.136.455 1.591.227.454.151.908.682 1.06.605.151.908.151 1.363.227.53 0 1.363-.379 1.666-.379.757-.227 1.363-.303 1.893-.53.682-.378 1.288-.454 1.364.227.075.833-.228 2.196-.228 2.348-.227.303-.757.833-1.06.909-.379.151-.682.075-1.136.075-.53 0-.758.152-1.212.152-.53 0-.606-.303-1.136-.303-.909 0-.984.833-1.06 1.439-.151.908-.151 1.287-.227 1.972 0 .38-.227 1.217-.076 1.598.227.457.681.685 1.742.837.455.455 1.211.38 1.969.303.378-.075 1.363.454.756 1.363-1.211.454-3.483 1.364-4.846 2.12-1.061.606-3.332 1.212-3.787 1.289-.757.15-.833-.531-1.363-.606-.076 0-.151.075-.227.075-.303.151-.606.758-.758.758-.833.454-.908 1.516-.984 1.97 0 .453-.075 1.211-.151 1.742-.151 1.74.53 2.498.605 3.786.076.453.682.908 1.288 1.136.606.227 1.211.379 1.59.303 2.348-.303 3.635-1.288 4.393-1.363 1.136-.152 3.484 0 4.316-.379.757-.379 1.969-.757 3.408-.833.227 0 .53-.076.833-.076 1.363.076 2.348-.454 3.408-.529.606-.076 1.817-.379 3.104-.304.455 0 .985.076 1.515.152.681.075 1.363.227 1.969.075h.227c.909-.151 3.408-.228 6.21-.303 3.56-.075 2.877.758 3.862.681 2.499-.227 4.316-3.332 4.316-6.134 0-1.969-2.347-2.575-2.347-3.862-.682-.681-1.893.303-2.954.076-.908-.151-2.65.605-3.332.681-.833.076-1.742-.075-2.727-.075-.757 0-2.196.454-3.029.605a1.701 1.701 0 0 1-.53.076c-.53 0-1.287-.151-1.287-1.061 0-.757.605-1.438.832-1.59.304-.153.606-.304.985-.38.681-.229 1.287-.305 1.666-.609 1.136-.685 1.817-1.066 2.347-1.675.304-.304.455-.834.455-1.365 0-.53-.833-1.514-.681-3.256 0-.379-.304-1.136-1.062-1.212-1.21-.227-2.196-.757-2.575-.833h-.151c-.681-.076-1.516.53-1.741.909-.152.151-.304.303-.455.379-.606.378-1.515.681-1.893 0-.379-.531-.303-1.895 0-2.424.227-.454 1.06-.53 1.893-.606.53-.075.985-.075 1.211-.302.228-.229.606-.379.985-.456.455-.076.833-.076 1.06-.227.456-.379 1.591-.303 1.969-.076.454.227 1.439-.984 1.666-1.591 1.364-3.786 3.181-6.361 4.848-10.148.227-.605 1.893-1.894 2.196-2.5.833-1.893 1.363-3.104 2.272-4.24.378-.53.606-1.212.606-2.727.075-.303 1.287-1.893 1.363-2.802V20.612c-.071-1.209-1.207-2.724-1.661-3.178zm-25.067 21.205a.58.58 0 0 1-.303.075c-.605.076-1.515-.151-2.197-.378-.226-.455-.226-.909-.151-1.439 0-.606.379-1.289.605-1.439.455-.076 1.061-.227 1.742-.303.303-.076.681-.151 1.135-.227.38 0 .834.379.758.833-.151 1.363-.908 2.499-1.589 2.878zm1.742-10.83c-.152 1.136-1.136 1.591-2.045 2.197a1.46 1.46 0 0 0-.682.378c-.605.455-1.061-.606-1.061-.606-.605-.53-.227-1.59-.303-2.347 0-1.363 1.288-1.136 2.045-1.439.075 0 .227-.076.303-.227 1.515-.38 1.968.151 1.743 2.044zm8.708 7.043c-.303.909-1.212 1.439-1.893 1.742-.227.076-.379.076-.53.076-.303.075-1.363-.758-1.363-1.212 0-.53-.303-1.666.227-2.196.757.076 1.211-.227 1.666-.455.151-.075.303-.227.53-.302.378-.152 1.363-.152 1.439.53.077.68-.076 1.817-.076 1.817zm1.288-7.649s-.455.075-.985.151c-.606 0-1.439 0-2.045-.303h-.151c-.681-.454-.681-1.742-.606-2.575 0-.378.227-.681.606-.908.53-.379 1.363-.53 2.196-.682.909-.227 1.893-.303 2.726-.606.228.227.228 1.591.228 2.121 0 .681-1.136 2.196-1.969 2.802z" style="fill:#000;fill-opacity:1;stroke:none;stroke-opacity:1"/></g><g style="fill:#000;fill-opacity:1;stroke:none;stroke-opacity:1" fill="#FFF"><path d="m105.35 65.615.075-.152c.228-.303.303-1.438.303-1.893 0 0 .455-.984.227-1.742 0-.075-.076-.151-.151-.228-.228-.151-.53-.227-.909-.227H101.941l-.454.227c-.606.228-1.516.455-2.121.455-.151 0-.303-.152-.378-.455-.379-.833-.758-2.575-2.045-2.575-.455 0-1.287.682-1.969 1.062-.606.303-1.06.907-1.438 1.514-.53.909-.91 2.045-1.137 2.953-.227.606-1.06 1.516-1.06 2.046 0 .455.454 1.212.454 1.665 0 .455-.303 1.667-.303 2.122 0 2.044 1.666 2.802 3.408 2.802.833 0 2.424-.985 2.878-1.137.53-.228 1.363.303 2.196-.228.909-.604 1.364-.681 1.894-1.287.606-.757.455-1.59.909-2.65.228-.455 1.136-.758 1.364-.984.454-.607.833-.91 1.211-1.288zM142.61 58.496c-.682-.984-2.954-3.722-3.938-3.494-.455.077-1.212.228-1.667.228-.454 0-1.363-.685-1.968-.609-.682.153-1.591-.076-1.969-.151-.151 0-.455-.228-.758-.381-.454-.304-.908-.606-1.136-.606-.985.152-1.287-.53-1.969-.454-.758.606-.228 2.051-.606 2.583-.227.229-.455 1.217-.152 1.748.152.38.682 1.062.682 2.803.076.455.53.909.909 1.438.227.303.378.683.454 1.136 0 .454 1.212 2.045 1.514 2.879.303.681 0 1.666.152 2.196.228 1.06.909 1.666 1.515 1.666.455 0 1.061-.758 1.969-.985.53-.15 1.363.076 1.894-.075.984-.228 1.666-.379 2.271-.833.455-.455 1.061-1.212 1.288-1.515.455-.606.606-1.743 1.06-2.196.606-.683 1.061-.833 1.363-1.893.076-.077.076-.228.152-.38.075-.529.151-1.362 0-1.59-.378-.758-.681-1.061-1.06-1.515z" style="fill:#000;fill-opacity:1;stroke:none;stroke-opacity:1"/><path d="M132.311 42.501c.53-.833.909-1.742.909-1.742.454-.757 1.59-1.515 2.877-2.954.227-.682.152-1.666-.075-2.121-.228-.454-.454-2.12-.984-2.878-.303-.53-1.666-1.211-2.727-1.817-.227-.076-.454-.227-.681-.379-.455-.303-1.893 0-2.348-.075-.758-.379-1.591-.833-2.045-.833-.909 0-.985.227-1.363.454-.454.151-.757.379-1.212.606-.454.227-.908.606-1.363.909-.909.605-1.363.681-2.348.984-1.136.303-1.287.455-1.742.455-.303 0-.984.303-1.59.605l-.682.227c-1.06.455-2.348.455-3.029.833-1.59.758-3.256 1.212-4.089 1.212-.152-.379-.833-1.136-.909-1.287-.909-.606-1.137-.909-2.045-1.061-.53.302-1.515.605-2.196 1.061-.151.303-.303.454-.606.681-.681.758-1.666 1.591-1.742 3.635 0 .455.151 1.59.227 3.862.076 1.515.455 2.499.606 3.862.227 1.136.681 2.499.681 2.954 0 .454.151 1.514.227 2.044.151.076.378.834.455 1.061.227.681.151 1.212.53 1.896.227.305.833.837.984.837.985.229 2.121.229 2.575.229.531 0 1.212-.229 1.667-.229.682 0 1.287.761 2.044.533.379.152.757.914.757 1.292-.378 1.591-.454 3.712-.454 3.938-.076.076-.076.151-.076.303-.075.909.076 2.122.076 2.576 0 .453-.076 1.59-.076 2.044-.151 2.348-.909 3.03-2.575 3.03-.455 0-1.59-1.138-3.256-1.062a7.84 7.84 0 0 0-1.363.228c-.455.151-.757.303-.757.605 0 .229.303.531.757.909.833.682 2.121 1.742 2.65 2.574.53.985.606 1.742 1.211 2.273.606.605 1.667.832 2.196 1.136.606.227.758.681 1.364.983.378.228 1.438.531 1.666.758.302.455.605.758 1.06.758.53 0 1.591-.834 2.424-1.212 1.211-.606 1.893-2.272 2.575-2.575.606-.304 2.348-1.894 2.423-3.636 0-1.363.303-6.059.227-9.391 0-1.665-.075-2.953-.227-3.407-.455-1.212-.455-2.43-.455-2.887 0-.99 1.061-1.749 1.363-1.598.53.228 1.288.076 1.515-.227.682-.833 1.515-1.742 1.969-2.5 1.59-2.65 2.727-5.452 4.544-7.875.152-.146.304-.373.456-.601zm-19.615 1.59c-.076-.984.605-1.515 1.06-1.818.985-.605 2.272-.984 3.635-1.59.076 0 .152 0 .228-.076.303-.151.909-.454 1.136-.757.454-.454 1.136-.227 1.817-.605 0 0 1.136-.378 1.817-.303.303.152-.302 1.212-.682 1.969-.227.303-1.363 1.363-2.196 1.894-.833.605-1.287 1.135-1.893 1.59-.228.151-.379.303-.682.379-.53.377-2.12.833-2.726.833-.984-.001-1.514-.91-1.514-1.516zM146.322 17.282c-.833-.151-1.742-.908-2.197-1.969-.227-.454-1.287-.454-1.818-.605-.682-.151-1.287-.758-1.817-.758-1.135.152-2.423.456-4.089.985-.606.227-2.424.681-4.09 1.061-1.288.303-2.499.53-3.104.605-.758.151-.758-.682-.379-1.212 1.514-1.287 2.121-1.287 2.045-3.711-.151-2.423-1.288-2.877-1.666-3.635-.228-.53-.303-2.044-.682-2.5-.379-.454-1.893-.454-2.12-.604-.606-.531-.606-.985-1.212-.985-.454 0-1.515.076-2.272 0-.605-.076-1.363-.227-1.817-.151-.833 0-.833.303-1.591.53-.378.151-1.136.075-1.514.151-.076.076-.227.152-.379.303-.303.152-.682.378-1.212.378-.985 0-1.893-.378-2.726.454-.455.454-.682 1.061-.53 1.515.227.757 2.121 3.483 1.817 4.468-.227.757-.378 1.363-.605 1.817-.227.682-.303.909-.53 1.439-.151.379-.455.984-.303 1.439.076.377.833.984 1.439 1.136.606.075 1.137-.303 1.439.454.152.303.379 1.136.228 1.439-.303.833-1.439 1.136-2.121 1.287-.985.227-4.62 1.288-5.15 1.515-.681.606-1.742.151-2.877.454-.758.227-1.591.456-2.424.606-1.363.303-2.726.606-4.241.682-.682.075-2.272.984-2.727.984-.53 0-.833-.833-1.288-.757-1.287.227-3.938 1.742-4.847 2.499-.454.378-.53 1.06-.454 1.666 0 .984.076 1.893.076 2.12-.151.985-.227 2.196.682 2.575.682.379 1.893-.076 2.424.151.984.53.605 1.061 1.287.985.833-.152 1.514-.53 1.666-.985.228-.075 1.439-.605 1.894-.605.909-.076 1.742-.076 2.196-.606 0 0 1.06-.152 1.439-.076.378.152 1.287.076 1.666 0h.227c.758-.227 1.363-.606 1.817-.606.758 0 1.288 0 1.818-.227.606-.303 1.06.076 2.196-.53.606-.379 1.894-.379 2.348-.606.682-.454 1.742.076 2.348-.681.228-.228 1.439-.531 3.029-.833 1.666-.379 3.711-.758 5.528-1.288 1.515-.378 3.257-1.439 3.711-1.514 1.061-.228 2.045.227 2.499.075.984-.454 1.666-.606 2.65-.908l.303-.076c.682-.227 1.818-.606 2.348-.757l2.803-.303c.529 0 3.18-.228 3.635-.228 1.363-.151 1.742.834 2.121.606 1.211-.757 3.862-1.817 4.013-3.333.076-1.06.076-1.817.076-2.272-.002-.452-.608-1.058-.986-1.058z" style="fill:#000;fill-opacity:1;stroke:none;stroke-opacity:1"/></g><path fill-rule="evenodd" clip-rule="evenodd" fill="#FFF" d="M440.297 3.271c1.137.075 1.969 1.288 2.5 1.969.682.908-.15 2.423-1.061 3.18-1.061.985-1.666 1.818-2.121 2.726-.074.379-.379 2.121 0 2.5.152.076 1.289.985 1.363 1.969.078 1.06-.984 1.894-2.877 5.757.076.075-1.893 2.726-2.121 3.104-.453.682 1.137 1.818 2.576 1.364.758-.152-.455 2.12 1.287 2.12 1.213-.076 2.803-1.212 2.348-2.499-.455-.379-1.666-.303-2.121-.682-.834-.605-.834-2.271-.455-2.347.682-.152 1.061-.758 1.363-1.06.229-.229 1.137-.606 1.061-1.288 0-.454-1.211-.757-.15-2.347.682-.985 1.438-.833 1.969-.91.379-.152.834-1.212 1.061-1.742.303-.681.529-1.287.529-1.817 0-1.515-1.666-2.196-1.363-3.332.531-2.424 6.361-3.332 7.043-3.787.152-.076.303-.606.605-.908.531-.379 1.363-.531 2.123-.228.453.228 1.285.682 2.271 1.439.301.227.68.833.529 1.666-.076.757-.758 2.272-.229 2.954.229.302-2.043 1.515-3.104 2.5-1.818 1.817-1.742 3.862-2.424 5.832-.074.227-.607 1.666-.758 2.12-.076.303-.303 1.363-.605 2.348-.227.984-.529 2.12-.455 3.029.076.606.91.454 1.439.454.908-.076 2.271-1.137 2.727-1.514.607-.076 1.363-.228 1.816-.076.531.151 1.137.984 1.592 1.06.531.151.908 0 1.666.53.455.303 1.363 0 1.971.682.906 1.06 1.135 3.407 1.059 4.468-.076 1.136-.455 3.407-1.137 4.089-.605.606-3.105 1.514-6.057 1.59-.607 0-1.516.303-1.895.833-.229.227-1.818.152-2.348-.227-.455-.303-1.969-.151-3.029 0-2.195.454-4.695 2.651-5.227 3.711-.453.833-1.211 1.59-1.893 2.044-.605.379-1.969 1.666-2.574 2.575-.379.53-.834 1.893-.531 2.878.152.378.758.454 1.439.303.758-.152 1.818-.909 2.65-1.062.682-.075 1.211-.908 1.666-.908.758.075 1.439 1.136 3.029 1.514.605.152 1.439.758 2.953 1.212.152.076 1.289.303 1.137 1.212-.152.454-.152 2.35-.756 3.036-.531.609-1.139 1.37-1.742 1.521-1.137.228-1.818.228-3.105.531-.607.152-1.439.606-2.045.758-.984.151-4.771.833-4.848 2.121 0 .682.379 2.348.229 3.332-.152.908-.076 1.893-.379 2.878-.229 1.061-.76 2.044-.682 3.257.074 1.059-1.061 1.969-1.213 2.195-.758 1.666-.605 4.089-2.424 4.695-1.211.38-2.498 1.136-3.482 1.212-1.895.227-1.895.53-2.877.833-1.516.38-3.258.38-4.242-.075-.531-.379-.229-1.742-.303-2.5 0-1.59-3.787-3.256-4.09-3.938-.379-.908.984-.833 2.197-1.061 2.195-.379 4.316-.681 5.299-.984 2.197-.758 3.105-5.15 4.242-7.195.303-.604.229-1.514-1.211-1.666-.379 0-2.953.455-3.863.759-.908.227-2.953.605-4.014.681-.984.075-2.803 1.212-3.334 1.212-.982 0-1.816.379-3.027-.757-.305-.303-.984-.38-1.363-.606-.605-.379-.227-1.666-.303-2.196 0-.455.227-1.969.605-2.954.379-.988 2.498-2.281 3.635-2.281.531 0 2.121.685 2.65.685.531 0 1.742-1.143 2.576-1.598.908-.531 2.195-.531 3.18-.834 1.213-.455 1.365-.682 1.895-.985.53-.303.529-.757.682-1.136.227-.454.074-1.817.303-2.347.303-.455.758-1.515.908-2.272.152-.682-1.287-.227-1.818-.227-.529 0-1.438.681-2.045 1.363-.605.681-1.664.984-2.271 1.212-.529.151-1.363.227-1.969-.076-.834-.379-.682-.833-.682-1.742-.074-.984.152-2.196.531-2.575.379-.53.227-3.256 1.969-4.847.605-.53 2.271.227 2.877-.152.455-.303.834-.681 1.061-.757.605-.151 1.969-.076 2.65-.227.984-.227 1.893-.303 3.029-.757.303-.076 1.666 0 2.195-.379.457-.303.305-.152 1.895-.682-.152-.075.682-.53 1.137-.757.379-.227 2.121-.076 2.65 0 .758.076 1.742-.227 2.119-.076.758.152 1.289.53 2.197.53.531 0 1.969-1.135 2.5-1.211.908-.227 1.666-2.045 1.363-2.576-.076-.076-2.426 0-3.258.379-.682.227-2.877.227-3.406.454-1.063.53-3.182.757-5.303.53-.682 0-2.121.379-2.65.682-.455.151-2.045.454-2.727.53-1.061.151-2.877.227-4.318.53-.756.227-2.346.454-3.332.681-1.287.379-3.18 1.061-3.938 1.591-.984.681-1.438 1.666-2.498 3.256-.152.227-.834 1.136-1.137 1.363-1.969 1.59-3.18 3.484-5.074 3.862-.756.152-1.287.076-1.969-.833-.455-.606-1.438-2.953-1.438-4.619-.078-1.439.908-1.818.074-4.62-.227-.605.229-1.59.682-1.893.227-.076.986-.378 1.363-.833 1.213-1.439 1.895-3.332 3.258-5.376 0 0 .529-.379.906-.076.229.227.533 2.65.607 4.165.076.91.758 1.212 1.438 1.061 1.137-.227 2.35-.757 2.803-1.136.152-.076.984-.454.91-.909 0-.53-.529-1.438-.682-1.969-.303-.681-.455-2.271-.531-2.802 0-.455.229-3.484.455-5.756.15-1.363-.531-2.726-.379-6.058 0-.985-.303-3.332-.605-3.484-.607-.378.227-1.817 1.213-2.044.377-.076 1.209 0 1.664 0 .379 0 .305-.682.834-.53.529.151.529.303.682 1.06.227.757.152 1.211.303 1.969.227.833-.076 2.044.227 2.5.076.151.379 1.06 0 1.514-.15.152-.074 1.288-.074 1.666.074.606-.152 1.288-.076 2.045.076.833.227 3.559.227 4.166 0 .529.682 1.515.529 2.726-.076.53 0 1.515 0 2.045-.15 1.06-1.061 1.817-.832 2.423.227.606.832 1.136 1.137 1.212.682.076 1.74-.606 2.271-.682.529 0 1.438.076 2.045-.075.605-.228 1.893-.53 3.18-.606.531 0 1.363-.53 1.818-.606.455-.151 1.061-.682 1.363-.909.227-.227.377-.606.15-1.061-.303-.833-.984-.53-1.893-.151-.529.151-1.439.984-1.742.681-.605-.53-.756-.833-.529-1.59.15-.53-.227-1.667-1.061-1.363-.605.227-.756 1.439-.756 2.044.074.682-.457.833-.834 1.136-.305.303-.607.833-1.137.606-.758-.303-1.213-1.136-1.213-2.272 0-.454.152-4.166.152-4.696.076-.983-.531-2.347-.531-3.18.076-1.969.076-3.711 0-4.544-.074-.682-.377-1.287-.377-1.439-.076-.53.377-1.59.908-2.272.303-.303.834-.757 1.59-.833.607-.075.758 1.439.758 2.499-.076.606.152 1.136.455 1.516.379.378.758 4.468.758 5.074 0 .984.303.908.68 1.211.531.455 2.045-.378 2.652.076.377.303.605 1.212.982 1.288 1.137.228 1.971-1.817 2.35-2.271.832-1.288-.758-2.955-1.289-3.031-.301-.075-1.287.682-2.195.833-1.061.152-.834.833-1.438.682-.91-.227-.531-2.12 0-3.03.453-.833.982-1.818.908-2.499-.152-1.061-1.061-2.196-1.061-2.727 0-.379 1.213-1.666 1.742-1.666.529-.076 1.287 1.363 1.816 1.514.529 0 1.742-1.893 2.271-2.953.379-.682.607-2.651 1.668-3.105.453-.227 1.059.076 1.361-.151.309-.227 1.067-.303 1.37-.303M23.786 18.115c.455 0 1.136.833 1.742.985.833.151 1.969.151 2.878.303.454.075 2.423-.076 2.878-.076.303 0 1.439.151 1.893.53.303.151 1.364.379 1.666.757.833.909 1.666 1.818 1.818 2.802.151.833-.152 1.136-.152 1.818.076.53.076 2.196-.075 2.802-.152.454-.833 1.667-1.439 3.029-.152.757-.379 2.726-.379 3.18-.075 1.515-.151 2.575-.303 5.68-.075.984-.378 2.045-.53 3.483-.076.53-.227 2.045-.227 2.954 0 1.363.605 1.666.682 2.044.075.378.075.605.151 1.136.076.758.454 1.364.379 1.818-.076.757-.758 2.044-1.061 3.945-.151.913-.757 1.598-1.363 2.129-1.06.833-2.651 1.969-4.166 2.5-1.59.529-2.65 2.801-3.559 3.407-.984.682-2.5 1.136-3.787 1.742a21.46 21.46 0 0 0-4.923 2.878c-.757.605-2.044.757-2.953 1.288-.303.074-3.181 2.649-4.696 3.332-.909.377-2.044-1.819-2.954-2.727-.682-.683-.833-.605-1.894-1.439-.53-.454-.378-1.742-.53-2.424-.227-.758-.682-1.816-.682-2.12 0-.833.682-1.516 1.136-1.59.53-.152 1.287.074 1.817-.228a17.557 17.557 0 0 0 2.802-1.591c.984-.758 2.349-.909 2.954-1.136 1.817-.606 3.787-2.196 5.15-2.88.833-.382 2.347-1.219 2.423-2.361 0 0 .076-4.923-.151-5.453-.303-.606-1.288-.833-1.288-.833-.756.303-1.969.378-2.499.378-.454-.075-1.515.605-2.196.758-.53.151-1.288.454-1.742.227-.53-.227-.833-.303-1.136-.909-.531-1.06-.303-1.817-.531-2.802-.151-.681-.454-.909-.454-1.969 0-1.287.378-1.212.227-3.938-.075-1.59 1.439-2.196 2.347-2.347 1.137-.152 2.121-.985 3.181-.985.606-.075 1.894 0 2.347-.151.985-.379 2.5-.833 3.257-1.515.681-.909 1.514-1.514 1.59-2.953.152-2.727.908-4.014.984-6.362.151-2.802-1.212-3.332-1.59-4.09-.227-.454-.227-.833 0-1.21.758-.53 1.06-.53 1.817-1.364.308-.3.687-.527 1.141-.452M58.168 14.631c1.136 0 1.212.681 1.742.984.378.303 1.06.303 1.514.379.455.076.833.681 1.136 1.287.682 1.439.909 3.029.909 3.559-.076 2.651-1.969 3.257-2.651 4.848 0 0-.606 1.969-.53 2.499.227 1.363 1.59 1.742 2.196.757 1.061-.227 1.59-.908 2.196-1.211.758-.379 1.817.833 3.483 1.211.985.228 1.363 2.575 1.969 3.711.303.53.379 2.121.455 2.576 0 .605-.53 1.211-1.212 1.363-.909.151-1.439.303-2.499.606-.985.302-1.515 1.06-2.121 1.514-.909.682-1.893.833-2.953 1.591-1.136.984-3.257 2.044-4.62 2.271-.833.682-1.439 3.938-1.666 5.226-.151.909 0 2.044.152 2.5.454 1.438.075 2.802 1.363 4.243.833 1.066 2.575 1.522 3.559 1.599.606 0 2.348.228 2.575.38.53.304 1.59.304 1.818.381.455.228 1.287.757 1.741.683.606-.076 2.045.074 2.802.302 1.212.455 1.817 2.272 1.591 3.636-.228 1.288-.985 2.574-1.363 4.014-.379 1.061-.454 2.045-1.212 2.574-.606.455-2.121.151-3.029.455-1.136.454-2.272.757-2.954.757-.682 0-1.59-.757-2.045-.908-1.136-.454-2.65-.379-3.256-.304-.833 0-3.181-.075-3.181-.075-.455 0-1.667-.529-2.651-.757-1.136-.227-3.104.075-3.938-.227-.757-.229-1.515-.759-1.969-1.136-.455-.304-1.591-2.196-1.818-2.879-.303-.683-.228-3.256-.303-3.484-.076-.605-.833-3.564-.833-4.098l-.151-2.506c0-.53-.152-2.12-.303-2.499-.378-.833-.378-3.256-.378-3.786 0-1.969.53-2.272.984-6.134.076-.379.833-1.515.909-1.893.076-1.895.53-1.666.682-3.182.151-1.212.605-2.802.681-3.181.151-1.969.228-4.468.303-4.998.076-1.136.303-1.893.682-3.03.379-1.21 1.06-4.468 1.06-4.922 0 0-.151-2.423.152-3.332.303-1.136.909-1.288 1.893-1.363.53 0 1.742.53 2.5.53s1.666-.454 2.196-.454c.757-.076 1.439.378 1.894.378.53-.001 1.667-.53 2.499-.455M298.678 21.75c.531 0 1.213.455 1.59.909.758.909 1.742 1.363 2.348 2.272.381.53.531 1.363.758 2.196.152.53.91 1.212.91 1.514-.152 2.045-1.668 2.045-3.713 3.484-.984.681-2.348 1.439-2.953 2.499-.303.454-1.666 1.212-2.271 1.515-2.348.984-4.393.984-4.545 3.18-.15 2.272.986 1.363 1.063 3.787 0 .454-.455 1.363-.684 1.667-.529.757-.605 1.135-.682 1.666-.074.53 0 1.135-.455 1.666-.301.378-.301 1.135-.301 1.817-.076 2.12-.381 4.014.227 4.622 2.424-.303 5.756-.229 8.406-.229.984 0 1.438-.683 2.195-.834.607-.151 1.516-.227 2.045-.227.531.076 1.516.379 2.273.606.68.228 1.514.836 2.195 1.293.834.457 2.348.761 2.953 2.281.229.606.229 1.439.229 2.045 0 .227.15.606.303.682.227.378.227.529.227 1.06-.074.531-.455 1.288-.758 1.742-.377.606-.832 1.439-1.439 1.439-1.514.075-2.346.227-2.803.151-.529 0-2.195-.53-3.102-.53-1.063 0-1.971.302-3.184.302-1.287 0-3.711-.227-5.148-.453-.832-.076-3.787.151-4.771 0-1.969-.228-3.635.227-4.771.379-.908.227-3.182.529-4.619.681-1.666.228-3.787-.227-5.303-.075-1.74.075-6.057.758-9.314 1.894-3.787 1.287-10.904 4.393-11.359 4.316-.832-.076-2.65-2.423-4.393-4.09-.227-.682-.15-1.893-.076-2.423.076-1.061.076-2.197-.303-2.954.607-1.136 4.09-2.499 4.771-2.575.455-.075 1.893.455 2.803.228.453-.075 3.863-1.514 5.832-2.197.605-.228 1.74-.303 2.271-.455 1.816-.533 4.467-1.903 6.361-2.664 4.164-1.666 4.316-6.665 4.998-8.559.227-.756.529-1.666.529-2.802 0-.984-.076-2.12-.529-2.271-.834-.076-1.969.454-2.498.378 0 0-1.971.682-3.105.227-.986-.378-.834-1.59-.986-2.877-.15-1.136-.982-2.272-1.893-3.408-.379-.53-.531-2.348-.531-2.802.078-.53-.227-2.196-.227-2.726 0-1.288 1.213-1.439 2.348-1.969.455-.227 2.955.833 4.242.983.529.076 6.74-.908 10.148-1.666.756-.151 1.363-.378 1.816-.529.152 0 .908-.303 1.213-.455 3.027-.909 4.543-1.59 7.648-3.181.531-.303 1.363-.303 2.121-.303 1.061.076 1.363-.303 1.893-.227M358.658 18.873c.908.151 3.256-.303 3.482.075.607 1.06 1.742 1.818 2.803 2.348.984.454.531 1.06.684 1.969.074.833.604 1.211.377 1.893-.303.757-.91 2.045-1.514 3.559 0 .379-.455 1.969 0 2.121.377.075.908-.152 1.438-.379.152-.076 1.137-.606 1.742-.833.605-.227 1.516-.303 2.121-.682.908-.605 1.969-1.741 2.5-1.741 0 0 3.332-.758 3.785 0 .529.908 1.742.757 3.256.984 1.363.227 2.197 2.5 2.273 4.393 0 .758 0 1.061-.834 1.061-.453 0-.984.757-1.816 1.364-1.895 1.211-3.029 1.211-4.242 1.817-.908.454-1.363.833-2.422.985-1.063.151-2.045.227-2.803.378-.832.227-3.635 1.061-4.316 1.666-.455.379-1.061 1.288-1.439 2.045-.531 1.061.15 2.878.529 3.332 1.439 2.045 3.182 4.089 7.119 7.271 1.213 1.06 3.029 4.862 5.225 5.923 2.35 1.211 3.939 2.65 5.379 3.71.832.605 2.346.909 3.105 1.212.908.454 1.74 1.363 2.346 1.515a85.542 85.542 0 0 1 5.301 2.045c.607.227 1.592.303 1.895.833.229.454-.605.909-.605 1.363-.076.529.227 1.438-.303 1.969-.834 1.061-1.742 1.438-3.029 1.59-.531.076-.908.758-1.289 1.062-.303.377-.832.227-1.209.303-.303 0-2.197-.076-2.879-.229-.682-.074-1.742.229-2.879.076-.377 0-1.893-.076-2.574-.454-1.516-.909-2.803-.303-4.014-.605-.834-.152-2.045-.758-2.271-1.515-.834-2.196.227-2.803-3.484-6.21-1.59-1.439-2.727-3.56-3.938-5.074-.229-.227-1.895-2.196-2.574-2.726-2.424-1.75-4.697-4.333-5.455-4.788-.301-.227-2.119 3.952-3.785 5.771-1.895 1.97-3.258 2.878-5.529 5.377-1.969 2.121-4.619 2.727-5.604 3.409-.984.604-3.408 1.741-4.166 2.271-1.135.682-3.029.606-3.861.984-.455.228-1.742.454-2.121.379-.605-.075-.908-.832-1.439-1.211-.455-.304-.455-1.894-1.061-2.196-.377-.152-1.59-.379-1.893-.606-.379-.379-.074-.985 1.211-1.362 1.137-.38 1.742-.834 2.727-1.59.229-.229 1.439-.909 1.818-1.439.227-.228 1.061-.38 1.363-.53 2.424-1.591 6.135-6.066 8.709-8.347 2.271-2.12 2.801-4.846 3.332-5.906.303-.606.832-1.893.682-2.424-.076-.378-1.213 0-1.742 0-.529.076-.832 0-1.287 0-.531.076-1.213.455-1.818.531-.832.151-.984.151-1.74 0-.908-.303-1.363-1.061-2.652-1.288-.68-.076-2.727-1.439-3.029-3.786-.15-1.137.152-1.893.834-2.349.605-.454 1.061-1.21 1.439-1.514.529-.379 1.287-.303 1.816-.682.455-.303.684-.833 1.592-1.06.682-.152 2.498.151 3.785.076 2.348-.076 4.09-1.137 6.211-2.121-.152-2.196.303-3.635 1.137-5.755.377-.985.303-2.349.453-3.635.152-2.5-.15-2.651-.227-3.105 0-.909.453-.984.984-1.136 1.666-.454 1.895.152 2.498.152.832.071 1.287-.686 1.892-.534" style="fill:#000;fill-opacity:1;stroke:none;stroke-opacity:1"/></svg>
